<mxfile host="app.diagrams.net" agent="Mozilla/5.0 (Windows NT 10.0; Win64; x64) AppleWebKit/537.36 (KHTML, like Gecko) Chrome/136.0.0.0 Safari/537.36" version="27.0.9">
  <diagram name="PÃ¡gina-1" id="UqssqdpfTapaI2UjKjmP">
    <mxGraphModel dx="1490" dy="1120" grid="1" gridSize="10" guides="1" tooltips="1" connect="1" arrows="1" fold="1" page="1" pageScale="1" pageWidth="827" pageHeight="1169" math="0" shadow="0">
      <root>
        <mxCell id="0" />
        <mxCell id="1" parent="0" />
        <mxCell id="DaK_P30AJBEWnnJ5nTdL-1" value="Evento" style="swimlane;whiteSpace=wrap;html=1;" vertex="1" parent="1">
          <mxGeometry x="-620" y="240" width="200" height="200" as="geometry" />
        </mxCell>
        <mxCell id="DaK_P30AJBEWnnJ5nTdL-3" value="&lt;ul&gt;&lt;li&gt;Nombre&lt;/li&gt;&lt;li&gt;Tipo&lt;/li&gt;&lt;li&gt;Fecha&lt;/li&gt;&lt;li&gt;Lugar&lt;/li&gt;&lt;li&gt;Capacidad&lt;/li&gt;&lt;li&gt;Precio&lt;/li&gt;&lt;li&gt;Detalles Json&lt;/li&gt;&lt;/ul&gt;&lt;div&gt;&lt;br&gt;&lt;/div&gt;" style="text;html=1;align=center;verticalAlign=middle;resizable=0;points=[];autosize=1;strokeColor=none;fillColor=none;" vertex="1" parent="DaK_P30AJBEWnnJ5nTdL-1">
          <mxGeometry x="20" y="40" width="140" height="150" as="geometry" />
        </mxCell>
        <mxCell id="DaK_P30AJBEWnnJ5nTdL-2" value="Entrada" style="swimlane;whiteSpace=wrap;html=1;" vertex="1" parent="1">
          <mxGeometry x="-340" y="240" width="200" height="200" as="geometry" />
        </mxCell>
        <mxCell id="DaK_P30AJBEWnnJ5nTdL-4" value="&lt;ul&gt;&lt;li&gt;Id evento&lt;/li&gt;&lt;li&gt;Comprador&lt;/li&gt;&lt;li&gt;Email&lt;/li&gt;&lt;li&gt;Cantidad&lt;/li&gt;&lt;/ul&gt;" style="text;html=1;align=center;verticalAlign=middle;resizable=0;points=[];autosize=1;strokeColor=none;fillColor=none;" vertex="1" parent="DaK_P30AJBEWnnJ5nTdL-2">
          <mxGeometry x="20" y="50" width="120" height="100" as="geometry" />
        </mxCell>
        <mxCell id="DaK_P30AJBEWnnJ5nTdL-5" value="" style="endArrow=none;html=1;rounded=0;entryX=0;entryY=0.5;entryDx=0;entryDy=0;exitX=1;exitY=0.5;exitDx=0;exitDy=0;" edge="1" parent="1" source="DaK_P30AJBEWnnJ5nTdL-1" target="DaK_P30AJBEWnnJ5nTdL-2">
          <mxGeometry width="50" height="50" relative="1" as="geometry">
            <mxPoint x="-450" y="410" as="sourcePoint" />
            <mxPoint x="-400" y="360" as="targetPoint" />
          </mxGeometry>
        </mxCell>
      </root>
    </mxGraphModel>
  </diagram>
</mxfile>
